<svg xmlns="http://www.w3.org/2000/svg" width="24" height="20" viewBox="0 0 24 20" fill="#DC5B2A">
    <path d="M23.954 2.323a10 10 0 01-2.825.775 4.962 4.962 0 002.163-2.723 9.93 9.93 0 01-3.15 1.202 4.92 4.92 0 00-8.384 4.482 13.94 13.94 0 01-10.11-5.127 4.872 4.872 0 001.523 6.498 4.905 4.905 0 01-2.229-.616v.061a4.923 4.923 0 003.946 4.827 4.996 4.996 0 01-2.212.084 4.937 4.937 0 004.604 3.417 9.868 9.868 0 01-6.102 2.105c-.39 0-.779-.023-1.17-.067a13.987 13.987 0 007.557 2.209c9.056 0 14-7.504 14-14v-.635c.96-.689 1.8-1.55 2.46-2.534z"/>
</svg>