<svg width="243" height="67" viewBox="0 0 243 67" fill="none" xmlns="http://www.w3.org/2000/svg">
<path d="M93.4383 20.666C93.4383 22.8547 93.0845 24.7597 92.3769 26.3809C91.6693 27.992 90.6887 29.2992 89.4352 30.2719L93.3271 33.332L90.254 36.0578L85.2703 32.0452C84.7042 32.1465 84.1179 32.187 83.5013 32.187C81.5603 32.187 79.8317 31.7209 78.3053 30.7887C76.7788 29.8565 75.6062 28.5189 74.7671 26.7862C73.9281 25.0535 73.5035 23.0574 73.4934 20.7977V19.6426C73.4934 17.3323 73.9079 15.2956 74.7368 13.5426C75.5657 11.7897 76.7384 10.442 78.2547 9.49965C79.7711 8.5573 81.4997 8.09119 83.4507 8.09119C85.4017 8.09119 87.1304 8.5573 88.6467 9.49965C90.163 10.442 91.3357 11.7897 92.1646 13.5426C92.9935 15.2956 93.408 17.3222 93.408 19.6223V20.666H93.4383ZM88.5557 19.6021C88.5557 17.1398 88.121 15.2754 87.2416 13.9986C86.3621 12.7219 85.1086 12.0835 83.481 12.0835C81.8535 12.0835 80.6202 12.7117 79.7407 13.9784C78.8613 15.245 78.4165 17.0891 78.4063 19.5311V20.6761C78.4063 23.0675 78.841 24.9319 79.7205 26.2492C80.6 27.5665 81.8636 28.2352 83.5114 28.2352C85.1591 28.2352 86.3722 27.5969 87.2416 26.3303C88.1109 25.0535 88.5456 23.1992 88.5557 20.7673V19.6223V19.6021Z" fill="black"/>
<path d="M102.799 31.8627H97.9772V8.40527H102.799V31.8627Z" fill="black"/>
<path d="M77.9615 56.9414V66.1218H74.8783V42.6643H83.5113C86.0689 42.6643 88.0806 43.3229 89.5261 44.6301C90.9818 45.9372 91.6996 47.6699 91.6996 49.8282C91.6996 52.1081 90.9919 53.8611 89.5666 55.0871C88.1513 56.3132 86.1093 56.9313 83.4709 56.9313H77.9615V56.9414ZM77.9615 54.4082H83.5113C85.1591 54.4082 86.4227 54.0232 87.3022 53.2328C88.1816 52.4526 88.6163 51.3279 88.6163 49.8485C88.6163 48.4501 88.1715 47.3355 87.3022 46.4945C86.4227 45.6535 85.2197 45.2178 83.6832 45.1874H77.9615V54.3981V54.4082Z" fill="black"/>
<path d="M104.912 56.6375H99.4128V66.1218H96.3094V42.6643H104.053C106.691 42.6643 108.713 43.2621 110.138 44.468C111.554 45.6738 112.271 47.4267 112.271 49.7167C112.271 51.1759 111.877 52.4526 111.089 53.5368C110.3 54.621 109.208 55.4317 107.803 55.9687L113.302 65.9292V66.1218H109.987L104.912 56.6375ZM99.4128 54.1043H104.154C105.69 54.1043 106.904 53.7091 107.813 52.9086C108.723 52.1081 109.168 51.0441 109.168 49.7167C109.168 48.2678 108.733 47.1531 107.874 46.3729C107.015 45.6028 105.771 45.2076 104.134 45.1975H99.4128V54.1043Z" fill="black"/>
<path d="M135.289 55.1478C135.289 57.448 134.905 59.4543 134.137 61.1667C133.369 62.8792 132.277 64.1863 130.862 65.0881C129.446 65.99 127.799 66.4459 125.908 66.4459C124.018 66.4459 122.431 65.99 121.005 65.0881C119.58 64.1762 118.478 62.8893 117.69 61.2073C116.901 59.5252 116.497 57.5797 116.477 55.3708V53.6786C116.477 51.419 116.871 49.4329 117.649 47.7002C118.428 45.9675 119.54 44.6502 120.965 43.7282C122.39 42.8061 124.028 42.3501 125.878 42.3501C127.728 42.3501 129.406 42.8061 130.831 43.7079C132.257 44.6097 133.358 45.927 134.137 47.6496C134.905 49.3721 135.289 51.3784 135.289 53.6684V55.1478ZM132.216 53.638C132.216 50.8515 131.66 48.7236 130.548 47.2341C129.436 45.7446 127.879 45.0049 125.868 45.0049C123.856 45.0049 122.38 45.7446 121.268 47.2341C120.146 48.7236 119.57 50.7907 119.54 53.4253V55.1478C119.54 57.8432 120.106 59.9609 121.238 61.5011C122.37 63.0413 123.927 63.8114 125.908 63.8114C127.89 63.8114 129.446 63.0818 130.538 61.6328C131.63 60.1737 132.196 58.0864 132.226 55.3708V53.6279L132.216 53.638Z" fill="black"/>
<path d="M156.346 45.1975H148.825V66.1218H145.752V45.1975H138.251V42.6643H156.346V45.1975Z" fill="black"/>
<path d="M178.06 55.1478C178.06 57.448 177.676 59.4543 176.908 61.1667C176.14 62.8792 175.048 64.1863 173.633 65.0881C172.217 65.99 170.57 66.4459 168.679 66.4459C166.789 66.4459 165.202 65.99 163.776 65.0881C162.351 64.1762 161.249 62.8893 160.461 61.2073C159.672 59.5252 159.268 57.5797 159.248 55.3708V53.6786C159.248 51.419 159.642 49.4329 160.42 47.7002C161.199 45.9675 162.311 44.6502 163.736 43.7282C165.161 42.8061 166.799 42.3501 168.649 42.3501C170.499 42.3501 172.177 42.8061 173.602 43.7079C175.028 44.6097 176.129 45.927 176.908 47.6496C177.676 49.3721 178.06 51.3784 178.06 53.6684V55.1478ZM174.987 53.638C174.987 50.8515 174.431 48.7236 173.319 47.2341C172.207 45.7446 170.65 45.0049 168.639 45.0049C166.627 45.0049 165.151 45.7446 164.039 47.2341C162.917 48.7236 162.341 50.7907 162.311 53.4253V55.1478C162.311 57.8432 162.877 59.9609 164.009 61.5011C165.141 63.0413 166.698 63.8114 168.679 63.8114C170.661 63.8114 172.217 63.0818 173.309 61.6328C174.401 60.1737 174.967 58.0864 174.997 55.3708V53.6279L174.987 53.638Z" fill="black"/>
<path d="M200.593 58.6842C200.3 61.1667 199.39 63.0818 197.853 64.4295C196.317 65.7772 194.275 66.4561 191.727 66.4561C188.958 66.4561 186.744 65.463 185.086 63.477C183.418 61.491 182.589 58.8362 182.589 55.5025V53.2429C182.589 51.0643 182.973 49.1492 183.751 47.4874C184.53 45.8358 185.632 44.559 187.057 43.6775C188.482 42.7959 190.13 42.3501 192.01 42.3501C194.497 42.3501 196.489 43.0493 197.985 44.4375C199.481 45.8257 200.36 47.7509 200.603 50.2132H197.5C197.237 48.3386 196.65 46.9808 195.761 46.1398C194.861 45.2987 193.618 44.8833 192.01 44.8833C190.039 44.8833 188.493 45.6129 187.37 47.072C186.248 48.5311 185.692 50.6185 185.692 53.3138V55.5835C185.692 58.1269 186.228 60.1534 187.279 61.6632C188.341 63.1629 189.827 63.9229 191.727 63.9229C193.446 63.9229 194.76 63.5378 195.67 62.7576C196.59 61.9774 197.196 60.6196 197.489 58.6943H200.593V58.6842Z" fill="black"/>
<path d="M223.49 55.1478C223.49 57.448 223.106 59.4543 222.337 61.1667C221.569 62.8792 220.477 64.1863 219.062 65.0881C217.647 65.99 215.999 66.4459 214.109 66.4459C212.218 66.4459 210.631 65.99 209.206 65.0881C207.78 64.1762 206.679 62.8893 205.89 61.2073C205.102 59.5252 204.697 57.5797 204.677 55.3708V53.6786C204.677 51.419 205.071 49.4329 205.85 47.7002C206.628 45.9675 207.74 44.6502 209.165 43.7282C210.591 42.8061 212.228 42.3501 214.078 42.3501C215.928 42.3501 217.606 42.8061 219.032 43.7079C220.457 44.6097 221.559 45.927 222.337 47.6496C223.106 49.3721 223.49 51.3784 223.49 53.6684V55.1478ZM220.417 53.638C220.417 50.8515 219.861 48.7236 218.749 47.2341C217.637 45.7446 216.08 45.0049 214.068 45.0049C212.057 45.0049 210.581 45.7446 209.469 47.2341C208.347 48.7236 207.77 50.7907 207.74 53.4253V55.1478C207.74 57.8432 208.306 59.9609 209.438 61.5011C210.571 63.0413 212.127 63.8114 214.109 63.8114C216.09 63.8114 217.647 63.0818 218.739 61.6328C219.83 60.1737 220.396 58.0864 220.427 55.3708V53.6279L220.417 53.638Z" fill="black"/>
<path d="M231.91 63.5988H243V66.132H228.807V42.6746H231.91V63.5988Z" fill="black"/>
<path d="M52.3636 66.9969C52.1224 66.9969 51.8912 66.9567 51.6701 66.8661C51.1172 66.6546 50.5643 66.4432 50.0115 66.2419C48.182 65.5572 46.2821 64.8424 44.513 63.896C44.4828 63.8759 44.2717 63.7551 43.9701 63.5638C43.8797 63.6242 43.7993 63.6846 43.7088 63.745C41.1656 65.5874 38.4113 66.8459 33.3551 66.9869C23.0919 67.2688 17.1914 62.9195 16.5279 62.406C11.3008 59.1843 7.18953 54.7947 4.29453 49.358C2.92744 46.7806 1.57041 43.9717 0.94718 40.8305C0.334002 37.7195 -0.198759 34.6689 0.0726473 31.5076C0.685825 24.4299 2.44494 19.0939 5.5812 14.7244L6.12401 13.9694C6.99854 12.7209 7.90323 11.4322 9.06927 10.3953C13.4419 6.47884 18.2167 2.53223 24.4892 0.850891C28.6709 -0.266645 32.9229 -0.286781 37.1448 0.81062C39.4769 1.41469 41.8693 2.49196 43.4575 3.28732C43.749 3.46854 48.7047 6.56946 51.087 8.8146C51.3785 9.08643 51.66 9.35826 51.9515 9.62003C52.6049 10.214 53.2784 10.8382 53.8916 11.5329C56.5453 14.5432 58.4653 17.5636 59.7419 20.7652C61.4105 24.9132 62.1544 29.484 61.9735 34.3367C61.8026 38.9377 60.928 42.8743 59.2996 46.3678C56.676 52.0059 52.243 56.6572 49.2173 59.3856C49.7903 59.6071 50.1321 59.6977 50.1421 59.7078L50.2728 59.7481C51.1373 60.1004 52.2631 60.1911 53.3488 60.2817C54.0021 60.332 54.8566 60.4025 55.3793 61.0468C55.711 61.4495 55.8216 61.963 55.7412 62.6174C55.6105 63.6745 55.4295 64.2182 54.8867 65.1545C54.7963 65.3156 54.5148 65.7183 54.2434 66.0506C53.7508 66.6546 53.0371 66.9869 52.3536 66.9869L52.3636 66.9969ZM43.9199 61.1374L44.4929 61.4999C45.0558 61.8623 45.5182 62.1442 45.5182 62.1442C47.1165 63 48.9459 63.6947 50.7252 64.3491C51.2881 64.5605 51.851 64.7719 52.4039 64.9834C52.4139 64.9834 52.5848 64.923 52.7054 64.7619C52.9065 64.5202 53.1176 64.2081 53.1578 64.1377C53.58 63.4027 53.6604 63.1107 53.7609 62.3657C53.7609 62.3657 53.7609 62.3556 53.7609 62.3456C53.6403 62.3254 53.4593 62.3053 53.2181 62.2852C52.0319 62.1845 50.7252 62.0737 49.5792 61.6308C49.3078 61.5502 48.3026 61.2482 46.9355 60.5434L45.5986 59.8588L46.7445 58.8822C49.539 56.4961 54.6555 51.5931 57.4802 45.502C58.988 42.2601 59.8022 38.5753 59.963 34.2461C60.1339 29.6753 59.4303 25.3863 57.8722 21.5001C56.676 18.52 54.8767 15.691 52.3737 12.8518C51.8309 12.2377 51.2278 11.6839 50.5844 11.0899C50.2829 10.8181 49.9813 10.5362 49.6898 10.2543C47.4582 8.15011 42.5126 5.0492 42.4623 5.019C41.0349 4.31425 38.7833 3.29739 36.6221 2.73359C32.742 1.7268 28.8317 1.73687 24.9918 2.76379C19.1415 4.33438 14.5879 8.10984 10.4163 11.845C9.4211 12.731 8.58677 13.9291 7.77255 15.0768L7.21969 15.8521C4.29453 19.9195 2.66609 24.9333 2.08307 31.6385C1.83176 34.5381 2.33437 37.4376 2.92744 40.3976C3.50041 43.2871 4.77703 45.9349 6.07375 48.3713C8.79787 53.506 12.688 57.6439 17.6337 60.6844L17.7442 60.7549C17.7945 60.7951 23.4538 65.1948 33.3049 64.933C38.351 64.7921 40.6429 63.4329 42.5629 62.0536C42.8443 61.8623 43.0956 61.6811 43.357 61.4999L43.9098 61.1072L43.9199 61.1374ZM33.1641 63.1309C32.742 63.1309 32.4605 63.1007 32.3399 63.0906C25.9769 62.7886 20.4583 59.7783 19.4129 59.1742C19.3124 59.1138 19.2219 59.0534 19.1314 58.993C18.2267 58.2983 15.2312 55.9424 13.9948 54.6235C10.6676 52.0562 8.245 47.5961 8.14448 47.4048L8.10427 47.3142L7.66198 46.2571C7.35036 45.5121 7.05885 44.8073 6.77739 44.1026L6.71708 43.9314C6.27479 42.7937 5.82245 41.6158 5.47062 40.4177C5.43041 40.2768 4.75692 37.6591 4.50562 35.6254C4.43526 35.0717 4.45536 34.5481 4.47546 34.0347C4.47546 33.8232 4.49557 33.6017 4.49557 33.3903C4.49557 33.1789 4.69661 29.2021 5.1389 27.0878C6.315 21.4599 8.60688 16.8488 12.1553 12.9928C15.5428 9.31799 19.5536 6.65 24.0972 5.05927C27.2636 3.9518 30.7416 3.73031 34.7222 4.37465C40.1001 5.25056 44.714 7.5259 48.4333 11.1503C50.1622 12.8418 51.6399 14.5634 53.2181 16.728C54.1931 18.067 54.6756 19.4161 55.1481 20.7048L55.3692 21.3089C56.8167 25.1951 57.6309 29.3732 57.7717 33.7226C57.9426 36.3402 56.9374 39.9647 56.8268 40.3472C56.6961 40.8909 56.3845 41.646 56.0829 42.3608C55.902 42.7837 55.7311 43.1864 55.6406 43.4683L55.6004 43.579C53.399 48.3512 50.4336 51.9253 46.6641 55.8216C46.443 56.0531 46.2218 56.325 45.9906 56.5968C45.6187 57.0398 45.2367 57.5029 44.7944 57.9056L44.0104 58.5903L43.176 57.9862C43.1057 57.9258 43.0152 57.8553 42.9046 57.7647C42.6533 57.5633 42.3317 57.3116 42.0301 57.0297C40.0398 55.1873 39.0547 53.2039 38.2907 51.3414C37.8786 50.3346 37.758 49.801 37.577 49.0056L37.4664 48.4922C37.4262 48.3009 37.3157 48.2203 37.2352 48.1801C37.1347 48.1398 37.0241 48.1398 36.9437 48.1801C36.5919 48.3713 36.5416 48.4217 36.3507 48.6029C36.1798 48.764 35.9486 48.9754 35.4862 49.3379C35.4259 49.3882 35.255 49.5392 35.0841 49.6902L34.9434 49.8111C35.2349 50.3245 35.5163 50.838 35.7978 51.3615C36.7025 53.0227 37.6474 54.7443 38.7632 56.2444C39.4869 57.221 40.2911 58.107 41.3164 59.0332L42.3216 59.9394L41.1656 60.634C37.5871 62.7886 34.6016 63.1007 33.1843 63.1007L33.1641 63.1309ZM9.94381 46.4887C10.1951 46.9316 12.4367 50.8984 15.2915 53.0731L15.4222 53.1939C16.2867 54.1403 18.6188 56.0431 20.3578 57.3922C21.0112 57.7748 26.4292 60.8052 32.4705 61.077H32.5711C32.5711 61.077 35.2751 61.4294 38.9441 59.5769C38.2706 58.8923 37.6775 58.1976 37.1347 57.4627C35.9385 55.8417 34.9635 54.0698 34.0286 52.3482C33.7472 51.8347 33.4657 51.3112 33.1742 50.8078C32.5208 49.65 33.0033 48.8647 33.516 48.4116L33.7271 48.2203C33.9382 48.029 34.1493 47.8377 34.2196 47.7874C34.6116 47.4753 34.8127 47.2941 34.9534 47.1632C35.2248 46.9014 35.4158 46.7504 35.9687 46.4484C36.602 46.1061 37.376 46.0859 38.0394 46.388C38.733 46.7001 39.2256 47.3142 39.4065 48.0794L39.5271 48.6029C39.688 49.3479 39.7784 49.7607 40.1302 50.6064C40.9143 52.5093 41.7587 54.0899 43.3771 55.58C43.5379 55.731 43.7088 55.8719 43.8696 56.0028C44.0606 55.7914 44.2516 55.5598 44.4325 55.3383C44.6939 55.0162 44.9553 54.7141 45.2066 54.4524C48.9258 50.6064 51.66 47.3142 53.7408 42.8139C53.8514 42.4917 54.0323 42.0688 54.2233 41.6057C54.4746 41.0117 54.7862 40.2768 54.8666 39.8942L54.8867 39.8338C54.8867 39.8338 55.9221 36.2295 55.7613 33.8333C55.6205 29.6652 54.8465 25.7085 53.4794 22.0237L53.2583 21.4095C52.816 20.1913 52.3938 19.0436 51.5896 17.926C50.0818 15.8521 48.6745 14.211 47.026 12.6102C43.6083 9.27772 39.3562 7.1836 34.4006 6.37817C30.7617 5.78416 27.6053 5.98552 24.7606 6.98224C20.5287 8.46222 16.7893 10.949 13.6229 14.3821C10.3258 17.9562 8.19474 22.2552 7.09906 27.5207C6.68693 29.484 6.50599 33.4205 6.50599 33.4608C6.50599 33.6521 6.50599 33.8937 6.48588 34.1353C6.46578 34.5884 6.45573 35.0113 6.50599 35.4039C6.73719 37.2967 7.40062 39.874 7.41068 39.8942C7.73234 40.9916 8.17464 42.1293 8.59682 43.2267L8.65714 43.3978C8.92854 44.0925 9.21 44.7771 9.52162 45.502L9.94381 46.5088V46.4887Z" fill="#DC5B2A"/>
<mask id="mask0_2_431" style="mask-type:luminance" maskUnits="userSpaceOnUse" x="1" y="0" width="61" height="67">
<path d="M59.1799 21.2638C57.8355 17.9099 55.844 14.9511 53.4684 12.2558C52.6294 11.2931 51.6286 10.4724 50.7087 9.58069C48.3634 7.3616 43.2685 4.1799 43.2685 4.1799C41.459 3.27808 39.2249 2.31546 37.102 1.75816C33.0585 0.704345 28.9239 0.704345 24.8803 1.78856C18.9262 3.38954 14.2559 7.15895 9.78771 11.1614C8.47355 12.3469 7.47277 13.9074 6.42144 15.3665C2.91364 20.2708 1.57926 25.9046 1.07382 31.7817C0.800875 34.8621 1.34676 37.8918 1.93307 40.8911C2.51939 43.8499 3.78301 46.5351 5.19826 49.2101C8.05909 54.6008 12.0622 58.8363 17.1976 61.9977C17.1976 61.9977 23.0304 66.7297 33.5336 66.4359C38.6588 66.294 41.2063 64.9362 43.41 63.3454C43.6728 63.1731 43.9357 62.9806 44.2086 62.7881C44.7848 63.1529 45.2599 63.4467 45.2599 63.4467C47.5041 64.6525 49.9606 65.4631 52.3463 66.3954C52.8012 66.5676 53.4179 66.3346 53.802 65.8786C54.0446 65.5847 54.2973 65.2098 54.3479 65.1186C54.8432 64.2675 54.9645 63.852 55.0757 62.9401C55.197 61.9268 54.6208 61.8052 53.6099 61.7241C52.4676 61.6329 51.2141 61.5316 50.1931 61.1162C50.1931 61.1162 49.162 60.8527 47.676 60.0826C51.8712 56.5057 56.2484 51.642 58.7554 46.2615C60.4739 42.5731 61.1916 38.5909 61.3534 34.5378C61.5252 29.978 60.8884 25.5399 59.1799 21.274V21.2638ZM56.1877 40.3844C56.0159 41.1647 55.2678 42.7049 55.0151 43.4749C52.8619 48.1563 49.9909 51.6217 46.2102 55.533C45.634 56.1308 45.0477 56.9719 44.3704 57.59C44.3097 57.6406 44.2592 57.6913 44.1985 57.7419C44.1581 57.7115 44.1176 57.6812 44.0772 57.6406C43.8447 57.438 43.3797 57.0934 42.9551 56.7084C41.2568 55.1378 40.3167 53.476 39.4372 51.338C38.9722 50.2031 38.9216 49.7472 38.6588 48.6326C38.4263 47.6395 37.3952 47.2545 36.6674 47.6497C35.8688 48.0854 36.1013 48.0854 35.06 48.9061C34.9691 48.9771 34.6355 49.281 34.3928 49.504C33.9481 49.8991 34.0188 50.2437 34.2513 50.6692C35.5048 52.9086 36.6572 55.229 38.1736 57.2758C38.9823 58.3702 39.8517 59.3024 40.8727 60.2346C36.1821 63.0617 32.6137 62.5348 32.6137 62.5348C26.3461 62.251 20.7761 59.1605 20.018 58.7147C19.9573 58.6843 19.9068 58.6438 19.8461 58.6032C19.2901 58.1675 15.9339 55.5634 14.7411 54.2563C11.486 51.7737 9.04976 47.2545 9.04976 47.2545C8.57464 46.0892 8.12985 45.0759 7.72549 44.0424C7.26048 42.8467 6.79547 41.6409 6.43155 40.4047C6.43155 40.4047 5.74414 37.7499 5.49142 35.7436C5.40044 35.0444 5.49142 34.325 5.49142 33.6157C5.49142 33.6157 5.68349 29.5525 6.11817 27.4752C7.20994 22.2062 9.35303 17.6464 12.9316 13.7554C16.1563 10.2495 20.0483 7.61492 24.5468 6.0342C27.8524 4.87906 31.2894 4.8284 34.7467 5.3857C39.8416 6.21659 44.3097 8.33435 47.9995 11.9416C49.7786 13.6845 51.2444 15.4172 52.7001 17.4336C53.7413 18.8725 54.1962 20.362 54.732 21.8009C56.1978 25.7324 56.9459 29.8058 57.0975 33.9906C57.2694 36.615 56.1776 40.3844 56.1776 40.3844H56.1877Z" fill="white"/>
</mask>
<g mask="url(#mask0_2_431)">
<path d="M59.1799 21.2637C57.8355 17.9097 55.844 14.951 53.4684 12.2556C52.6294 11.293 51.6286 10.4723 50.7087 9.58057C48.3634 7.36148 43.2685 4.17978 43.2685 4.17978C41.459 3.27796 39.2249 2.31534 37.102 1.75804C33.0585 0.704223 28.9239 0.704223 24.8803 1.78843C18.9262 3.38942 14.2559 7.15883 9.78771 11.1613C8.47355 12.3468 7.47277 13.9073 6.42144 15.3664C2.91364 20.2707 1.57926 25.9045 1.07382 31.7816C0.800875 34.8619 1.34676 37.8916 1.93307 40.891C2.51939 43.8497 3.78301 46.5349 5.19826 49.21C8.05909 54.6007 12.0622 58.8362 17.1976 61.9976C17.1976 61.9976 23.0304 66.7296 33.5336 66.4358C38.6588 66.2939 41.2063 64.9361 43.41 63.3453C43.6728 63.173 43.9357 62.9805 44.2086 62.788C44.7848 63.1527 45.2599 63.4466 45.2599 63.4466C47.5041 64.6524 49.9606 65.463 52.3463 66.3952C52.8012 66.5675 53.4179 66.3344 53.802 65.8785C54.0446 65.5846 54.2973 65.2097 54.3479 65.1185C54.8432 64.2674 54.9645 63.8519 55.0757 62.94C55.197 61.9267 54.6208 61.8051 53.6099 61.724C52.4676 61.6328 51.2141 61.5315 50.1931 61.1161C50.1931 61.1161 49.162 60.8526 47.676 60.0825C51.8712 56.5056 56.2484 51.6419 58.7554 46.2613C60.4739 42.573 61.1916 38.5908 61.3534 34.5377C61.5252 29.9779 60.8884 25.5397 59.1799 21.2738V21.2637ZM56.1877 40.3843C56.0159 41.1645 55.2678 42.7047 55.0151 43.4748C52.8619 48.1562 49.9909 51.6216 46.2102 55.5329C45.634 56.1307 45.0477 56.9717 44.3704 57.5898C44.3097 57.6405 44.2592 57.6912 44.1985 57.7418C44.1581 57.7114 44.1176 57.681 44.0772 57.6405C43.8447 57.4378 43.3797 57.0933 42.9551 56.7083C41.2568 55.1377 40.3167 53.4759 39.4372 51.3379C38.9722 50.203 38.9216 49.747 38.6588 48.6324C38.4263 47.6394 37.3952 47.2544 36.6674 47.6495C35.8688 48.0853 36.1013 48.0853 35.06 48.906C34.9691 48.9769 34.6355 49.2809 34.3928 49.5038C33.9481 49.899 34.0188 50.2435 34.2513 50.6691C35.5048 52.9085 36.6572 55.2289 38.1736 57.2757C38.9823 58.3701 39.8517 59.3023 40.8727 60.2345C36.1821 63.0615 32.6137 62.5346 32.6137 62.5346C26.3461 62.2509 20.7761 59.1604 20.018 58.7146C19.9573 58.6842 19.9068 58.6436 19.8461 58.6031C19.2901 58.1674 15.9339 55.5633 14.7411 54.2561C11.486 51.7736 9.04976 47.2544 9.04976 47.2544C8.57464 46.0891 8.12985 45.0758 7.72549 44.0423C7.26048 42.8466 6.79547 41.6408 6.43155 40.4046C6.43155 40.4046 5.74414 37.7498 5.49142 35.7435C5.40044 35.0443 5.49142 34.3249 5.49142 33.6156C5.49142 33.6156 5.68349 29.5523 6.11817 27.4751C7.20994 22.2061 9.35303 17.6463 12.9316 13.7553C16.1563 10.2493 20.0483 7.6148 24.5468 6.03408C27.8524 4.87894 31.2894 4.82828 34.7467 5.38558C39.8416 6.21647 44.3097 8.33423 47.9995 11.9415C49.7786 13.6844 51.2444 15.4171 52.7001 17.4335C53.7413 18.8724 54.1962 20.3619 54.732 21.8007C56.1978 25.7323 56.9459 29.8057 57.0975 33.9905C57.2694 36.6149 56.1776 40.3843 56.1776 40.3843H56.1877Z" fill="#DC5B2A"/>
<path d="M27.6704 61.5923C27.4682 61.6835 27.3671 61.8051 27.3671 61.9571C27.3671 62.0686 27.4884 62.18 27.6603 62.2307L28.5296 62.5043C28.105 63.0818 28.3173 63.3757 29.1564 63.4061C29.8943 63.4264 30.2481 63.7405 30.2178 64.3586C30.2178 64.4903 30.0965 64.6018 29.955 64.5916C29.2474 64.5714 28.7217 64.237 28.3578 63.5986C28.2769 63.4568 28.1354 63.396 28.0242 63.4466C27.9231 63.4973 27.8321 63.5885 27.7714 63.7101C26.9425 63.0413 26.0125 62.6259 24.9814 62.4637C24.7287 62.4232 24.5265 62.3523 24.3546 62.2611C24.1626 62.1598 23.9705 62.0382 23.7784 61.9166C23.6268 61.8152 23.465 61.7848 23.364 61.8355C23.2123 61.9064 23.1416 62.0584 23.1719 62.2915C20.4829 61.5315 17.986 60.1332 15.6913 58.0965C13.9728 56.5664 12.6687 55.31 11.7791 54.3271C11.7387 54.2866 11.6477 54.2156 11.486 54.1042C11.3647 54.0231 11.3343 53.9218 11.3849 53.8205C11.4253 53.7293 11.5567 53.6989 11.678 53.7597C11.6881 53.7597 11.7084 53.7799 11.7185 53.7799C12.143 54.1042 12.5474 54.4588 12.9315 54.8337C13.437 55.3302 13.5381 55.2086 13.2348 54.469C13.1034 54.1346 13.1337 53.9218 13.3258 53.8103C14.4782 54.6919 15.5498 55.6748 16.5404 56.759C16.9751 57.2352 17.9051 57.6405 19.3406 57.985C21.4837 59.1604 23.7178 60.1129 26.0428 60.8628C26.1843 60.9033 27.1548 61.2377 27.1548 61.2275" fill="#BC4124"/>
<path d="M50.4459 61.2175C50.7593 61.4101 50.9311 61.7444 50.9412 62.2409C50.9412 62.6767 51.2445 63.0516 51.6691 63.163C52.5486 63.3961 53.0439 63.8014 53.1652 64.379C53.1854 64.46 53.1248 64.5411 53.0338 64.5512C53.0035 64.5512 52.9832 64.5512 52.9529 64.5512C52.3565 64.379 52.2352 64.6931 52.5991 65.5037C52.8923 66.1522 53.4584 66.3751 54.3075 66.1826C54.4895 66.1421 54.5198 66.2029 54.3985 66.365C54.348 66.4359 54.257 66.4663 54.166 66.4461C53.0338 66.213 52.0128 65.7368 51.103 65.0275C50.9716 64.9261 50.7997 64.9363 50.7087 65.0477C50.4762 65.3011 50.5167 65.5949 50.8098 65.9192C51.0524 66.1927 51.103 66.3549 50.9412 66.3954C50.8503 66.4157 50.6885 66.3549 50.5167 66.2333L48.3837 64.612C49.0003 65.1085 49.3036 64.9971 49.2935 64.2776C49.2935 63.9939 49.0812 63.7507 48.7981 63.7001C47.7165 63.5177 47.2212 63.1529 47.3324 62.5855C47.3627 62.4335 47.4739 62.2916 47.6457 62.2105C48.2118 61.9572 48.7678 61.9674 49.3137 62.2308C49.4249 62.2815 49.5563 62.2308 49.6069 62.1295C49.8596 61.5924 50.1426 61.2885 50.4661 61.2277L50.4459 61.2175Z" fill="#BC4124"/>
<path d="M41.0141 54.0232C40.7917 54.4184 40.5087 54.469 40.165 54.1853C39.9729 53.4456 39.5685 53.2126 38.9721 53.476C38.8205 53.547 38.6486 53.5166 38.5576 53.4051L34.7668 48.8757C35.2419 48.2678 35.8586 47.8726 36.6167 47.6699C36.92 48.0448 37.2131 48.4299 37.476 48.8251C37.6782 49.1392 38.0016 49.4837 38.4464 49.8586C38.962 50.3045 39.336 50.8618 39.5584 51.5305C39.8213 52.3107 40.2357 52.9998 40.8119 53.6078C40.8625 53.6584 40.9433 53.6685 40.9939 53.628L41.0849 53.547C41.1657 53.7091 41.1556 53.8611 41.0343 54.0131L41.0141 54.0232Z" fill="#F28970"/>
<path d="M39.3924 55.8576C39.703 55.6695 39.7629 55.1986 39.5261 54.8058C39.2894 54.4131 38.8457 54.2472 38.5351 54.4353C38.2245 54.6234 38.1646 55.0943 38.4013 55.487C38.6381 55.8798 39.0818 56.0457 39.3924 55.8576Z" fill="#F28970"/>
<path d="M61.6769 34.8012C56.2383 31.2953 52.5384 18.8218 52.3868 18.2138C52.2048 17.4741 52.0734 17.0181 52.0027 16.8459C51.8409 16.4608 51.5983 16.0454 51.2546 15.6097C49.4552 13.3095 48.4443 12.3773 46.8572 11.0094C46.6348 10.8168 45.4015 9.79343 44.7647 9.76303C40.0539 6.15575 35.0601 5.33499 29.4193 5.13233C27.0943 5.33499 22.8788 6.4496 20.6448 7.72633C20.665 7.20956 20.665 6.66239 20.291 6.36854C20.2 6.29761 20.1393 6.21655 20.0989 6.12535C19.8765 5.64911 19.5429 5.39579 19.0981 5.37552C18.4612 5.35526 18.2186 5.08167 18.35 4.55476C22.4037 2.12289 27.6098 0.694162 32.3509 0.998146C35.8587 1.22107 40.1853 2.42687 43.2584 4.15958C43.0158 5.53765 42.7126 6.4496 44.0065 7.37169C47.5143 9.84409 50.9513 13.1981 53.4584 17.2106C53.792 17.7477 54.1053 18.457 54.4086 19.3588C54.722 20.3012 55.1162 21.203 55.5812 22.0744C55.8542 22.5912 56.0665 23.1181 56.2181 23.6349C56.3697 24.182 56.5315 24.7191 56.7134 25.2561C56.8853 25.7729 57.0066 25.8033 57.0672 25.3676C57.0774 25.2865 57.0672 25.2054 57.0672 25.1244C56.2484 21.1118 56.0867 16.015 53.7616 12.58C54.7927 12.8029 57.4918 12.0429 57.9467 13.0359C58.4724 14.1911 57.7041 17.7882 58.2197 18.9434C58.8262 20.3417 59.4226 19.5007 60.3223 20.7369L62.1116 34.3351L61.6769 34.7708V34.8012Z" fill="#F28970"/>
<path d="M18.744 4.18994C18.5823 4.72698 18.835 5.02083 19.5022 5.0715C19.9672 5.1019 20.3109 5.37548 20.5232 5.89226C20.5636 5.99358 20.6344 6.07465 20.7152 6.15571C21.0893 6.47996 21.2611 6.91567 21.2207 7.45271C18.8956 8.63825 16.6312 10.1886 14.4275 12.1138C12.1732 14.0897 10.3839 16.3291 9.05964 18.842C8.05886 20.7368 7.22993 22.8546 6.57285 25.2054C5.91577 27.5765 5.56195 30.0084 5.54173 32.5112L5.56195 27.6575C5.56195 27.5562 5.6125 27.4549 5.70348 27.3941C5.88544 27.2624 5.98653 27.1205 5.98653 26.9685C6.00675 26.32 6.05729 25.6816 6.12805 25.0331C6.1786 24.6278 6.34034 24.0705 6.6335 23.3511C6.88622 22.7229 7.03786 22.0541 7.0884 21.3549C7.12884 20.7571 7.21982 20.1795 7.35123 19.5918C7.39167 19.4094 7.40178 19.2574 7.37145 19.146C7.30069 18.8623 7.14905 18.7812 6.90644 18.9028C6.77502 18.9737 6.66383 19.0953 6.56274 19.2777C6.16849 20.0681 5.81468 21.0408 5.51141 22.2162C5.31934 22.966 5.03629 23.0978 4.68248 22.6013C4.63193 22.5303 4.53084 22.5101 4.44997 22.5607C3.82322 23.0167 3.1257 23.2396 2.35742 23.2396C3.87376 17.9402 6.57285 13.4817 10.4446 9.87445C12.7696 7.70603 15.5395 5.80106 18.744 4.16968V4.18994Z" fill="#BC4124"/>
<path d="M9.26195 48.8758L10.5256 50.9429C9.79772 50.7605 9.6562 50.9733 10.0909 51.6015C10.384 52.0271 10.6772 52.4526 10.9704 52.8782C11.2736 53.3241 11.6072 53.7091 11.9711 54.0334C12.9113 54.8643 13.8817 55.6546 14.8825 56.4044C14.7511 56.4956 14.741 56.6578 14.8623 56.8908C15.1352 57.4076 15.0746 57.4988 14.6702 57.1745C14.367 56.9313 14.0435 56.6983 13.7099 56.4956C13.629 56.445 13.5279 56.4551 13.4875 56.526C13.4875 56.526 13.4875 56.5463 13.4774 56.5463C13.447 56.6274 13.4774 56.6983 13.5684 56.749C13.6897 56.8199 13.7705 56.8705 13.7908 56.8908C14.5085 57.5393 15.5497 58.3601 16.9144 59.343C18.734 60.6501 20.6446 61.4911 22.6664 61.8458C23.5459 62.17 24.4355 62.4537 25.3453 62.6969C25.416 62.7172 25.5474 62.7678 25.7193 62.859C25.972 62.9908 26.1135 62.8894 26.1236 62.5449C26.1641 62.4537 26.2146 62.3828 26.2955 62.3321C26.3663 62.2916 26.4775 62.3321 26.5482 62.4233C26.8616 62.859 27.266 63.0718 27.7815 63.0313C27.8826 63.0313 27.9635 62.9401 27.9534 62.8388C27.923 62.3929 27.6501 62.1801 27.1042 62.2207C26.4876 62.2612 26.3157 62.0585 26.5887 61.6127C27.3468 61.6634 28.0747 61.8559 28.7621 62.1903C28.9238 62.2713 29.1361 62.3321 29.4293 62.3929C29.9246 62.4943 29.9954 62.778 29.6416 63.2542C29.591 63.3251 29.6011 63.4265 29.6618 63.4771C29.9954 63.6899 30.3492 63.8217 30.7535 63.8521C30.8445 63.8521 30.9557 63.8318 31.0669 63.771C31.5622 63.5177 32.0172 63.5785 32.4518 63.9433L32.9876 65.605C33.028 65.7368 33.0988 65.828 33.1494 65.8482C33.2504 65.8888 33.2808 65.7874 33.2504 65.5442C33.2201 65.2605 33.3111 65.0883 33.5234 65.0376C33.6144 65.0173 33.7053 65.0781 33.7458 65.1795C33.9682 65.8989 34.3321 66.5373 34.8477 67.0743C34.8881 67.1148 34.9487 67.1351 34.9993 67.1148C35.1206 67.0743 35.1307 67.0338 35.0195 66.9831C34.4938 66.7703 34.2714 66.4359 34.3624 65.9799C34.4736 65.4125 34.6556 65.2909 34.9083 65.605C34.9487 65.6557 35.0094 65.6658 35.0599 65.6354C35.07 65.6354 35.0802 65.6152 35.0903 65.5949C35.2419 65.2403 35.1307 64.8349 34.7466 64.3891C34.5646 64.1763 34.5444 63.8622 34.7061 63.6291C34.878 63.3657 34.9184 63.1225 34.8274 62.8996C34.9487 62.859 35.0296 62.778 35.07 62.6665L35.1408 62.6361C35.1408 62.6361 35.2318 62.6463 35.2419 62.6969C35.434 63.2036 35.5148 63.7305 35.4845 64.2574C35.4542 64.7133 35.5452 65.1389 35.7473 65.5341C35.9192 65.8685 36.0304 66.1522 36.0708 66.3954C36.1315 66.6994 36.2124 67.0034 36.3033 67.3073C28.6711 67.9052 21.5544 65.9698 14.9634 61.5012C11.7386 59.3126 9.19119 56.83 7.31093 54.0435C4.6725 50.1221 2.91354 46.221 2.02396 42.33C2.69115 41.9551 3.19659 41.418 3.52008 40.7188C3.56051 40.6378 3.65149 40.5973 3.73237 40.6378C4.28836 40.8911 4.46021 40.6378 4.26814 39.8981C3.95476 38.7328 3.78291 37.7094 3.75258 36.838C3.75258 36.6353 3.78291 36.4732 3.86378 36.3415C4.01542 36.1084 4.18727 36.1084 4.38945 36.3212C4.47032 36.4124 4.53097 36.5441 4.58152 36.7265C4.74326 37.294 4.95555 37.8411 5.19816 38.3782C5.49132 39.0064 5.68339 39.6549 5.77437 40.3338C5.87546 41.1039 5.99677 41.6713 6.15851 42.0462C6.40112 42.634 6.67406 43.2217 6.96722 43.7992C7.03799 43.931 7.02788 44.1032 6.92679 44.3059C6.88635 44.4072 6.88635 44.5187 6.92679 44.6098L9.26195 48.8352V48.8758ZM12.1531 57.1644C12.6586 57.6812 13.2145 58.1372 13.8009 58.5425C14.3872 58.9376 14.9533 59.3734 15.4891 59.8496C15.9743 60.2752 16.4999 60.6602 17.0559 60.9946C17.0863 61.0047 17.5715 61.329 18.5419 61.9674C19.0474 62.3017 19.5933 62.5348 20.1796 62.6969C20.3211 62.7374 20.4626 62.7273 20.5738 62.6766C20.9175 62.5247 20.8771 62.3524 20.4424 62.1295C19.6843 61.7444 18.4712 60.9946 16.8335 59.8597C16.8032 59.8395 16.2068 59.4443 15.0139 58.6641C12.7799 57.2049 10.9097 55.3506 9.39337 53.1113C9.13053 52.7161 8.88792 52.6756 8.69585 52.9897C8.64531 53.0707 8.64531 53.1923 8.71607 53.2835C9.53489 54.5096 10.4447 55.6647 11.4354 56.7591C11.5567 56.9009 11.7083 56.982 11.8701 57.0225C11.9914 57.0529 12.0925 57.1036 12.1531 57.1644Z" fill="#F28970"/>
<path d="M33.9278 2.8828C34.0794 2.80173 34.2412 2.77134 34.4332 2.7916C35.899 2.96386 37.3446 3.23745 38.77 3.62249C38.8812 3.65289 38.962 3.73395 38.9722 3.83528C39.0227 4.20006 38.8205 4.32166 38.3656 4.2102C35.7575 3.52116 33.1292 3.35904 30.4807 3.72382C29.0755 3.91634 28.3578 4.01767 28.3274 4.01767C26.3461 4.25073 24.941 4.47365 24.112 4.68644C23.647 4.80803 23.4954 4.69657 23.6571 4.36219C23.7178 4.25073 23.8088 4.15953 23.9402 4.0886C24.4861 3.81502 25.0623 3.63263 25.6486 3.55156C26.7909 3.38944 27.3772 3.30838 27.3974 3.30838C28.0343 3.19691 28.6813 3.13612 29.3282 3.14625C30.046 3.14625 30.7536 3.11585 31.4612 3.02466C32.1688 2.93346 32.8866 2.92333 33.6144 2.97399C33.7054 2.97399 33.8065 2.95373 33.9177 2.89293L33.9278 2.8828Z" fill="#DC5B2A"/>
<path d="M54.1053 52.9999C54.0952 53.2127 54.0144 53.4052 53.8627 53.5876C52.7002 55.0366 51.4467 56.3842 50.082 57.6508C49.9809 57.7522 49.8394 57.7826 49.7282 57.7319C49.3036 57.5394 49.3137 57.2455 49.7484 56.8301C52.2251 54.5097 54.1559 51.8245 55.5307 48.7644C56.2585 47.1431 56.6427 46.3122 56.6528 46.2717C57.7344 44.0121 58.4421 42.3604 58.7656 41.337C58.9475 40.7594 59.1699 40.6682 59.4125 41.0736C59.4934 41.2154 59.5237 41.3775 59.5136 41.5599C59.4429 42.33 59.2407 43.0494 58.9374 43.7385C58.341 45.0557 58.0377 45.7346 58.0276 45.765C57.7243 46.525 57.3503 47.2444 56.9156 47.9335C56.4304 48.6934 55.9957 49.4737 55.6217 50.2843C55.2375 51.0949 54.7725 51.8751 54.2368 52.6047C54.1761 52.6959 54.1256 52.8276 54.1154 52.9897L54.1053 52.9999Z" fill="#F28970"/>
<path d="M47.8781 54.9655C47.9286 54.5298 47.6961 54.3373 47.1705 54.3879C46.7964 54.4285 46.5033 54.2562 46.2607 53.9016C46.2101 53.8306 46.1495 53.7698 46.0686 53.7293C45.735 53.5267 45.5429 53.2227 45.5025 52.7971C47.1806 51.5812 48.7475 50.0916 50.2234 48.3184C51.7296 46.5046 52.8416 44.549 53.5694 42.4414C54.1153 40.8606 54.4893 39.1178 54.6915 37.2331C54.9038 35.3281 54.8533 33.413 54.55 31.4878L55.1666 35.2167C55.1767 35.2977 55.1464 35.3788 55.0858 35.4396C54.9544 35.5612 54.9038 35.6929 54.9139 35.8044C54.9847 36.3009 55.0251 36.8075 55.0554 37.304C55.0757 37.6181 55.015 38.0741 54.8836 38.6618C54.7724 39.1786 54.732 39.7156 54.7825 40.2527C54.8229 40.7188 54.833 41.1748 54.8027 41.6409C54.8027 41.7827 54.8027 41.9043 54.8432 41.9854C54.9341 42.1982 55.0655 42.2387 55.2374 42.107C55.3385 42.0361 55.4093 41.9246 55.4598 41.7726C55.6721 41.114 55.8136 40.3236 55.9046 39.3813C55.9551 38.7834 56.1573 38.6416 56.5111 38.9759C56.5617 39.0266 56.6425 39.0266 56.6931 38.9759C57.1278 38.5402 57.6433 38.2768 58.2499 38.1754C57.7444 42.4414 56.2079 46.2209 53.6402 49.4938C52.0935 51.4697 50.1728 53.2936 47.868 54.9655H47.8781Z" fill="#BC4124"/>
</g>
</svg>
