<?xml version="1.0" encoding="UTF-8"?>
<svg id="Layer_1" data-name="Layer 1" xmlns="http://www.w3.org/2000/svg" xmlns:xlink="http://www.w3.org/1999/xlink" viewBox="0 0 1156.59 184.78">
  <defs>
    <style>
      .cls-1 {
        fill: none;
      }

      .cls-2 {
        clip-path: url(#clippath);
      }

      .cls-3 {
        fill: #f18870;
      }

      .cls-4 {
        fill: #bb4124;
      }

      .cls-5 {
        fill: #db5b2a;
      }
    </style>
    <clipPath id="clippath">
      <path class="cls-1" d="m160.85,57.52c-3.67-9.12-9.09-17.14-15.56-24.47-2.3-2.6-5-4.85-7.52-7.25-6.4-6.04-20.25-14.68-20.25-14.68-4.93-2.45-11.01-5.07-16.78-6.57-11.01-2.86-22.26-2.86-33.29.1-16.2,4.34-28.92,14.58-41.09,25.45-3.59,3.21-6.3,7.46-9.16,11.42-9.57,13.29-13.2,28.6-14.6,44.57-.73,8.36.73,16.6,2.35,24.74,1.59,8.03,5.03,15.33,8.89,22.59,7.8,14.63,18.68,26.16,32.68,34.75,0,0,15.89,12.84,44.48,12.06,13.96-.38,20.88-4.06,26.9-8.41.71-.48,1.44-.99,2.17-1.51,1.57,1,2.87,1.79,2.87,1.79,6.1,3.29,12.8,5.48,19.3,8,1.23.48,2.92-.16,3.96-1.41.67-.81,1.34-1.8,1.5-2.07,1.34-2.32,1.69-3.45,1.99-5.91.34-2.75-1.23-3.08-3.98-3.31-3.12-.26-6.52-.53-9.31-1.66,0,0-2.8-.71-6.86-2.8,11.43-9.72,23.35-22.92,30.16-37.55,4.67-10.02,6.65-20.84,7.07-31.86.47-12.38-1.27-24.45-5.92-36.02Zm-8.16,51.93c-.47,2.12-2.52,6.32-3.2,8.39-5.88,12.73-13.69,22.14-23.99,32.76-1.58,1.63-3.17,3.91-5.01,5.6-.15.14-.31.27-.46.41-.11-.09-.21-.17-.32-.26-.64-.54-1.91-1.47-3.06-2.54-4.63-4.28-7.19-8.78-9.57-14.59-1.26-3.07-1.42-4.31-2.12-7.36-.62-2.69-3.43-3.74-5.43-2.66-2.17,1.18-1.54,1.18-4.39,3.42-.24.19-1.15,1.01-1.82,1.61-1.22,1.08-1.02,2-.37,3.15,3.42,6.07,6.56,12.38,10.68,17.95,2.2,2.97,4.57,5.5,7.36,8.03-12.77,7.69-22.49,6.25-22.49,6.25-17.08-.78-32.23-9.18-34.3-10.37-.16-.09-.31-.19-.45-.31-1.52-1.17-10.64-8.27-13.89-11.81-8.85-6.73-15.48-19.01-15.48-19.01-1.3-3.15-2.51-5.92-3.59-8.74-1.26-3.26-2.54-6.53-3.53-9.87,0,0-1.88-7.22-2.55-12.66-.23-1.91-.02-3.85-.02-5.78,0,0,.52-11.04,1.69-16.69,2.98-14.32,8.81-26.7,18.56-37.26,8.79-9.51,19.37-16.69,31.63-20.98,9.01-3.15,18.37-3.29,27.77-1.77,13.87,2.24,26.04,8.02,36.1,17.81,4.86,4.73,8.83,9.45,12.81,14.92,2.83,3.91,4.07,7.95,5.54,11.88,3.98,10.67,6.03,21.74,6.43,33.11.47,7.12-2.5,17.36-2.5,17.36Z"/>
    </clipPath>
  </defs>
  <circle class="cls-5" cx="211.39" cy="41.24" r="15.5"/>
  <path class="cls-5" d="m143.09,182.69c-.62,0-1.24-.11-1.81-.33-1.49-.58-3-1.14-4.51-1.7-5.02-1.87-10.22-3.81-15.05-6.41-.08-.05-.71-.43-1.6-.99-.28.19-.56.38-.84.57-6.94,5.01-14.43,8.45-28.21,8.83-28.08.71-44.19-11.13-45.94-12.5-14.28-8.8-25.52-20.77-33.42-35.6-3.74-7.01-7.43-14.68-9.13-23.25-1.69-8.49-3.13-16.82-2.38-25.43,1.69-19.32,6.47-33.86,15.04-45.77.49-.68.98-1.38,1.47-2.07,2.39-3.4,4.87-6.91,8.05-9.75,11.89-10.63,24.94-21.39,42.06-25.97,11.41-3.06,23.03-3.09,34.53-.1,6.36,1.66,12.89,4.58,17.25,6.74.79.48,14.34,8.95,20.83,15.08.79.75,1.58,1.47,2.37,2.2,1.79,1.63,3.64,3.32,5.31,5.21,7.25,8.21,12.48,16.45,15.98,25.17h0c4.55,11.31,6.6,23.77,6.1,37.01-.48,12.56-2.86,23.29-7.29,32.79-7.25,15.57-19.57,28.36-27.83,35.78,1.79.73,2.89,1.02,2.91,1.02l.32.11c2.42.98,5.52,1.24,8.52,1.48,1.71.14,3.99.33,5.36,2.01.85,1.05,1.16,2.39.95,4.11-.35,2.85-.84,4.33-2.31,6.86-.26.43-1.01,1.53-1.73,2.4-1.31,1.59-3.19,2.49-4.99,2.49Zm-23.12-15.48l1.42.91c1.54.98,2.81,1.76,2.82,1.76,4.41,2.37,9.45,4.25,14.31,6.07,1.53.57,3.05,1.14,4.57,1.73.09.03.68-.15,1.11-.67.57-.69,1.16-1.56,1.26-1.73,1.18-2.05,1.41-2.85,1.66-4.94.01-.11.02-.2.02-.27-.33-.08-.91-.15-1.72-.22-3.21-.26-6.79-.56-9.89-1.78-.71-.2-3.47-1.04-7.2-2.95l-3.34-1.72,2.86-2.43c7.67-6.53,21.71-19.97,29.47-36.65,4.14-8.89,6.37-18.98,6.83-30.86.48-12.53-1.45-24.29-5.74-34.95h0c-3.29-8.18-8.23-15.94-15.09-23.72-1.49-1.69-3.16-3.21-4.93-4.83-.82-.75-1.64-1.5-2.44-2.26-6.12-5.78-19.68-14.26-19.82-14.34-3.93-1.94-10.12-4.72-16.07-6.26-10.65-2.77-21.4-2.74-31.97.09-16.06,4.3-28.57,14.64-40.02,24.87-2.75,2.45-5.05,5.73-7.28,8.89-.5.71-1,1.41-1.5,2.11-8.03,11.14-12.51,24.9-14.12,43.27-.69,7.95.69,15.89,2.3,24.01,1.58,7.93,5.08,15.2,8.64,21.87,7.49,14.07,18.17,25.43,31.74,33.76l.26.19c.15.12,15.54,12.2,42.78,11.49,13.89-.38,20.2-4.12,25.47-7.92.76-.52,1.47-1.01,2.19-1.52l1.38-.97Zm-29.47,4.92c-1.16,0-1.93-.07-2.24-.11-17.35-.82-32.44-9.04-35.29-10.68-.25-.14-.5-.31-.75-.5-1.74-1.35-10.54-8.19-14.03-11.91-9.08-6.99-15.7-19.14-15.98-19.66l-.11-.24-1.17-2.8c-.87-2.07-1.68-4.01-2.44-5.98l-.19-.48c-1.2-3.09-2.43-6.29-3.41-9.56-.1-.39-1.96-7.52-2.64-13.06-.18-1.49-.13-2.92-.08-4.3.02-.59.04-1.19.04-1.78.02-.58.54-11.41,1.75-17.18,3.2-15.36,9.46-27.92,19.15-38.41,9.24-10.01,20.21-17.28,32.61-21.62,8.63-3.02,18.1-3.63,28.97-1.87,14.68,2.38,27.26,8.59,37.41,18.47,4.73,4.6,8.76,9.3,13.08,15.22,2.64,3.66,3.97,7.31,5.26,10.84l.59,1.62c3.95,10.59,6.17,21.99,6.58,33.87.47,7.15-2.28,17.02-2.57,18.06-.34,1.49-1.2,3.53-2.03,5.5-.49,1.17-.95,2.26-1.21,3.04l-.1.26c-6.01,13.03-14.12,22.78-24.44,33.42-.61.63-1.22,1.37-1.86,2.13-1.01,1.21-2.05,2.47-3.26,3.57l-1.94,1.7-2.16-1.48c-.21-.18-.47-.38-.77-.62-.69-.55-1.57-1.24-2.38-2-5.43-5.02-8.1-10.4-10.18-15.47-1.13-2.74-1.45-4.17-1.92-6.34l-.32-1.41c-.14-.61-.5-.89-.78-1.01-.34-.15-.72-.16-1.01,0-.99.54-1.14.67-1.68,1.18-.46.43-1.09,1.02-2.34,2-.19.15-.7.62-1.21,1.06l-.41.37s.04.07.06.11c.79,1.41,1.58,2.84,2.36,4.26,2.5,4.56,5.08,9.27,8.15,13.41,1.99,2.68,4.22,5.12,7.02,7.65l2.51,2.27-2.9,1.74c-9.75,5.87-17.88,6.71-21.74,6.71Zm-63.81-45.15c.65,1.18,6.84,12.09,14.72,18.08l.33.3c3.16,3.44,12.5,10.69,13.56,11.5,1.82,1.06,16.71,9.38,33.29,10.14l.25.02c.06,0,7.63.96,17.9-4.3-1.94-1.94-3.61-3.89-5.17-5.99-3.27-4.41-5.94-9.28-8.51-13.99-.77-1.41-1.54-2.81-2.33-4.21-1.36-2.41-1.06-4.52.89-6.26l.49-.44c.62-.55,1.26-1.12,1.46-1.28,1.07-.85,1.61-1.35,2.01-1.72.74-.69,1.23-1.12,2.72-1.93,1.66-.9,3.7-.96,5.47-.16,1.83.82,3.14,2.45,3.6,4.47l.32,1.45c.45,2.05.7,3.18,1.67,5.52,2.15,5.24,4.5,9.58,8.95,13.69.51.47,1.04.91,1.52,1.3.58-.63,1.15-1.32,1.71-1.98.72-.86,1.42-1.7,2.11-2.41,10.21-10.53,17.7-19.54,23.42-31.9.3-.86.79-2.03,1.31-3.27.69-1.64,1.54-3.68,1.78-4.73l.04-.15c.03-.1,2.84-9.9,2.4-16.48-.4-11.41-2.51-22.28-6.27-32.36l-.61-1.66c-1.22-3.36-2.37-6.53-4.61-9.61-4.14-5.68-8-10.18-12.51-14.57-9.4-9.15-21.07-14.91-34.71-17.11-10.02-1.62-18.69-1.07-26.51,1.66-11.61,4.06-21.9,10.89-30.58,20.29-9.05,9.8-14.92,21.59-17.93,36.03-1.12,5.38-1.64,16.16-1.64,16.27,0,.53-.02,1.18-.04,1.84-.04,1.24-.09,2.42.05,3.52.64,5.2,2.47,12.25,2.49,12.32.9,3,2.1,6.1,3.26,9.1l.19.49c.74,1.92,1.54,3.82,2.39,5.84l1.12,2.69Z"/>
  <g class="cls-2">
    <path class="cls-5" d="m160.85,57.52c-3.67-9.12-9.09-17.14-15.56-24.47-2.3-2.6-5-4.85-7.52-7.25-6.4-6.04-20.25-14.68-20.25-14.68-4.93-2.45-11.01-5.07-16.78-6.57-11.01-2.86-22.26-2.86-33.29.1-16.2,4.34-28.92,14.58-41.09,25.45-3.59,3.21-6.3,7.46-9.16,11.42-9.57,13.29-13.2,28.6-14.6,44.57-.73,8.36.73,16.6,2.35,24.74,1.59,8.03,5.03,15.33,8.89,22.59,7.8,14.63,18.68,26.16,32.68,34.75,0,0,15.89,12.84,44.48,12.06,13.96-.38,20.88-4.06,26.9-8.41.71-.48,1.44-.99,2.17-1.51,1.57,1,2.87,1.79,2.87,1.79,6.1,3.29,12.8,5.48,19.3,8,1.23.48,2.92-.16,3.96-1.41.67-.81,1.34-1.8,1.5-2.07,1.34-2.32,1.69-3.45,1.99-5.91.34-2.75-1.23-3.08-3.98-3.31-3.12-.26-6.52-.53-9.31-1.66,0,0-2.8-.71-6.86-2.8,11.43-9.72,23.35-22.92,30.16-37.55,4.67-10.02,6.65-20.84,7.07-31.86.47-12.38-1.27-24.45-5.92-36.02Zm-8.16,51.93c-.47,2.12-2.52,6.32-3.2,8.39-5.88,12.73-13.69,22.14-23.99,32.76-1.58,1.63-3.17,3.91-5.01,5.6-.15.14-.31.27-.46.41-.11-.09-.21-.17-.32-.26-.64-.54-1.91-1.47-3.06-2.54-4.63-4.28-7.19-8.78-9.57-14.59-1.26-3.07-1.42-4.31-2.12-7.36-.62-2.69-3.43-3.74-5.43-2.66-2.17,1.18-1.54,1.18-4.39,3.42-.24.19-1.15,1.01-1.82,1.61-1.22,1.08-1.02,2-.37,3.15,3.42,6.07,6.56,12.38,10.68,17.95,2.2,2.97,4.57,5.5,7.36,8.03-12.77,7.69-22.49,6.25-22.49,6.25-17.08-.78-32.23-9.18-34.3-10.37-.16-.09-.31-.19-.45-.31-1.52-1.17-10.64-8.27-13.89-11.81-8.85-6.73-15.48-19.01-15.48-19.01-1.3-3.15-2.51-5.92-3.59-8.74-1.26-3.26-2.54-6.53-3.53-9.87,0,0-1.88-7.22-2.55-12.66-.23-1.91-.02-3.85-.02-5.78,0,0,.52-11.04,1.69-16.69,2.98-14.32,8.81-26.7,18.56-37.26,8.79-9.51,19.37-16.69,31.63-20.98,9.01-3.15,18.37-3.29,27.77-1.77,13.87,2.24,26.04,8.02,36.1,17.81,4.86,4.73,8.83,9.45,12.81,14.92,2.83,3.91,4.07,7.95,5.54,11.88,3.98,10.67,6.03,21.74,6.43,33.11.47,7.12-2.5,17.36-2.5,17.36Z"/>
    <path class="cls-4" d="m75.06,167.07c-.56.24-.83.57-.82.98,0,.3.33.6.8.74l2.36.75c-1.15,1.56-.58,2.37,1.7,2.44,2.01.06,2.98.92,2.9,2.59-.02.36-.34.65-.71.64-1.92-.06-3.37-.97-4.35-2.71-.22-.37-.61-.55-.9-.42-.29.14-.52.38-.7.71-2.24-1.82-4.78-2.95-7.6-3.39-.68-.11-1.25-.3-1.72-.56-.53-.29-1.05-.6-1.56-.95-.41-.27-.84-.36-1.13-.22-.43.21-.6.62-.52,1.24-7.33-2.07-14.12-5.87-20.36-11.39-4.68-4.15-8.24-7.56-10.66-10.23-.1-.11-.36-.31-.79-.61-.32-.23-.41-.49-.28-.77.12-.26.48-.33.79-.17.04.02.07.04.11.07,1.16.88,2.27,1.83,3.31,2.86,1.37,1.35,1.64,1.02.82-.99-.36-.9-.28-1.5.25-1.8,3.15,2.41,6.06,5.08,8.75,8.01,1.18,1.28,3.72,2.39,7.63,3.33,5.84,3.18,11.93,5.79,18.26,7.82.39.12,3.02,1.01,3.02.99"/>
    <path class="cls-4" d="m137.08,166.04c.86.52,1.31,1.44,1.34,2.77.02,1.18.83,2.21,1.97,2.51,2.39.62,3.75,1.73,4.07,3.31.05.22-.11.44-.36.48-.07.01-.15,0-.22-.01-1.64-.47-1.96.39-.97,2.59.79,1.76,2.34,2.38,4.65,1.85.5-.11.58.05.24.48-.15.19-.39.28-.63.23-3.07-.63-5.85-1.91-8.34-3.85-.36-.27-.83-.25-1.08.04-.62.69-.53,1.48.26,2.37.67.75.79,1.18.37,1.29-.25.07-.69-.1-1.15-.44l-5.79-4.41c1.69,1.35,2.51,1.04,2.47-.92-.02-.78-.59-1.44-1.36-1.57-2.95-.49-4.28-1.49-4-3.02.07-.42.4-.8.87-1.01,1.54-.68,3.05-.66,4.53.05.3.14.65.01.79-.29,0,0,0,0,0-.01.68-1.46,1.46-2.28,2.33-2.45Z"/>
    <path class="cls-3" d="m111.39,146.5c-.61,1.07-1.38,1.22-2.31.44-.53-2.01-1.61-2.65-3.24-1.94-.42.18-.88.1-1.14-.2l-10.33-12.31c1.31-1.64,2.98-2.73,5.03-3.26.84,1.01,1.62,2.06,2.34,3.15.56.85,1.44,1.79,2.63,2.81,1.42,1.22,2.43,2.73,3.03,4.54.7,2.12,1.84,4,3.4,5.66.14.14.36.16.5.05l.24-.21c.23.43.18.86-.15,1.27Z"/>
    <ellipse class="cls-3" cx="105.8" cy="149.57" rx="1.78" ry="2.26" transform="translate(-62.1 76.25) rotate(-31.14)"/>
    <path class="cls-3" d="m167.64,94.3h0c-14.82-9.53-24.89-43.42-25.29-45.05-.5-2-.85-3.24-1.05-3.72-.43-1.06-1.11-2.18-2.03-3.35-4.9-6.26-7.65-8.78-11.98-12.5-.6-.51-3.96-3.3-5.69-3.39-12.82-9.79-26.43-12.03-41.8-12.58-6.34.54-17.8,3.58-23.88,7.06.06-1.41.05-2.89-.95-3.69-.24-.19-.41-.41-.53-.67-.6-1.31-1.5-1.98-2.71-2.03-1.72-.07-2.4-.8-2.03-2.22,11.05-6.61,25.21-10.49,38.13-9.65,9.55.61,21.33,3.88,29.7,8.6-.66,3.75-1.49,6.23,2.05,8.72,9.55,6.73,18.92,15.83,25.74,26.74.9,1.45,1.77,3.4,2.6,5.84.86,2.55,1.93,5.01,3.2,7.38.76,1.41,1.33,2.82,1.72,4.23.41,1.48.86,2.95,1.36,4.41.47,1.4.79,1.5.96.3.03-.21.02-.43-.03-.66-2.23-10.91-2.66-24.76-8.99-34.08,2.81.61,10.16-1.45,11.39,1.25,1.42,3.13-.65,12.91.73,16.05,1.66,3.8,3.28,1.5,5.73,4.86l4.86,36.95-1.19,1.19Z"/>
    <path class="cls-4" d="m50.74,11.14c-.43,1.47.25,2.27,2.05,2.39,1.27.09,2.19.83,2.77,2.22.12.27.29.51.53.71,1.02.88,1.47,2.05,1.36,3.53-6.34,3.22-12.51,7.44-18.49,12.67-6.13,5.36-11,11.46-14.63,18.29-2.73,5.14-4.99,10.91-6.78,17.28-1.8,6.43-2.74,13.05-2.81,19.86l.07-13.19c0-.28.15-.54.39-.72.5-.36.76-.75.77-1.17.06-1.76.19-3.51.39-5.25.13-1.09.58-2.62,1.37-4.58.69-1.72,1.1-3.53,1.24-5.42.11-1.61.36-3.21.72-4.78.12-.49.14-.9.07-1.22-.18-.78-.6-1-1.27-.66-.37.18-.67.52-.93,1.02-1.09,2.13-2.04,4.8-2.85,7.99-.53,2.04-1.28,2.39-2.27,1.05-.14-.2-.42-.24-.62-.1,0,0,0,0,0,0-1.7,1.23-3.6,1.85-5.71,1.84,4.14-14.41,11.48-26.51,22.02-36.31,6.34-5.9,13.88-11.06,22.61-15.49Z"/>
    <path class="cls-3" d="m24.91,132.52l3.43,5.62c-1.97-.5-2.36.09-1.18,1.79.8,1.15,1.6,2.31,2.38,3.48.81,1.21,1.72,2.26,2.73,3.15,2.56,2.25,5.2,4.39,7.92,6.44-.37.26-.38.7-.05,1.33.75,1.4.57,1.67-.52.78-.83-.67-1.71-1.29-2.62-1.84-.22-.14-.5-.1-.61.07-.01.02-.03.04-.03.07-.07.22.01.4.26.54.33.19.54.32.62.39,1.96,1.76,4.8,3.99,8.51,6.67,4.95,3.56,10.17,5.83,15.66,6.81,2.39.89,4.82,1.66,7.28,2.32.2.06.54.2,1.01.45.69.36,1.06.07,1.11-.86.1-.26.26-.44.46-.57.2-.12.5-.02.69.24.84,1.2,1.96,1.75,3.37,1.65.28-.02.49-.25.47-.52-.07-1.22-.84-1.78-2.3-1.67-1.67.12-2.14-.43-1.42-1.65,2.08.13,4.05.66,5.91,1.57.43.21,1.03.39,1.81.55,1.34.28,1.54,1.05.59,2.33-.15.2-.12.48.06.61,0,0,.02.01.03.02.9.59,1.88.93,2.96,1.01.25.02.55-.06.86-.21,1.34-.69,2.6-.53,3.78.47l1.45,4.51c.12.35.29.61.45.66.27.1.36-.18.28-.82-.09-.77.15-1.23.74-1.36.24-.06.5.11.59.38.6,1.96,1.61,3.68,3.01,5.16.11.11.27.16.42.11.34-.11.36-.22.05-.35-1.43-.58-2.03-1.48-1.79-2.72.29-1.54.79-1.88,1.48-1.02.1.13.28.16.4.07.04-.03.06-.06.08-.1.42-.97.1-2.06-.94-3.28-.5-.59-.54-1.44-.12-2.08.48-.72.59-1.38.32-1.98.33-.12.56-.33.67-.65l.19-.07c.11-.03.24.03.29.15.53,1.38.75,2.8.65,4.24-.08,1.24.15,2.4.71,3.48.47.91.76,1.69.89,2.34.17.84.38,1.66.63,2.47-20.8,1.63-40.17-3.63-58.11-15.76-8.78-5.94-15.73-12.7-20.84-20.27-7.17-10.64-11.97-21.25-14.4-31.81,1.83-1.02,3.18-2.47,4.06-4.37.1-.22.36-.33.59-.23,0,0,0,0,0,0,1.51.69,1.99.01,1.46-2.01-.84-3.17-1.31-5.94-1.4-8.33-.02-.56.08-1,.31-1.34.41-.62.89-.64,1.42-.05.22.24.39.61.53,1.09.44,1.54,1.01,3.04,1.69,4.5.8,1.71,1.32,3.48,1.56,5.31.27,2.08.62,3.63,1.04,4.64.67,1.61,1.41,3.19,2.21,4.75.19.37.15.83-.1,1.39-.12.27-.12.57.02.81l6.35,11.49Zm7.87,22.52c1.38,1.4,2.88,2.65,4.5,3.74,1.6,1.08,3.13,2.26,4.59,3.55,1.32,1.16,2.74,2.2,4.26,3.11.07.04,1.42.92,4.04,2.63,1.37.9,2.86,1.55,4.47,1.97.4.1.76.08,1.08-.05.95-.4.83-.89-.35-1.48-2.08-1.04-5.36-3.09-9.83-6.16-.07-.05-1.72-1.13-4.95-3.24-6.08-3.97-11.18-9-15.31-15.08-.73-1.07-1.36-1.18-1.91-.33-.15.23-.13.54.04.79,2.24,3.33,4.71,6.48,7.42,9.44.34.38.74.62,1.19.72.34.08.61.21.78.38Z"/>
    <path class="cls-5" d="m92.07,7.57c.4-.22.86-.3,1.37-.24,3.99.46,7.92,1.21,11.8,2.25.29.07.51.3.55.57.14,1-.41,1.33-1.66,1.01-7.11-1.87-14.27-2.31-21.46-1.31-3.82.53-5.78.8-5.86.81-5.4.63-9.22,1.23-11.47,1.81-1.27.33-1.68.04-1.23-.89.16-.31.42-.56.78-.75,1.49-.74,3.04-1.23,4.67-1.45,3.1-.43,4.7-.65,4.78-.67,1.74-.31,3.49-.46,5.26-.45,1.95.02,3.88-.1,5.8-.33,1.94-.24,3.89-.28,5.86-.13.24.02.53-.06.84-.23Z"/>
    <path class="cls-3" d="m147.02,143.72c-.04.58-.26,1.11-.67,1.61-3.15,3.93-6.58,7.61-10.29,11.03-.28.26-.66.35-.97.21-1.16-.52-1.14-1.33.04-2.44,6.75-6.3,12-13.6,15.76-21.91,1.99-4.41,3.01-6.67,3.07-6.77,2.95-6.15,4.86-10.62,5.75-13.39.5-1.57,1.09-1.81,1.77-.72.22.37.31.82.27,1.33-.21,2.08-.73,4.05-1.58,5.92-1.62,3.59-2.45,5.42-2.48,5.52-.84,2.05-1.85,4.01-3.04,5.88-1.32,2.06-2.5,4.19-3.52,6.38-1.05,2.22-2.31,4.32-3.78,6.31-.18.24-.29.61-.32,1.04Z"/>
    <path class="cls-4" d="m130.08,149.08c.15-1.18-.49-1.7-1.92-1.56-1.01.1-1.83-.35-2.47-1.33-.13-.19-.3-.35-.51-.48-.91-.54-1.43-1.38-1.53-2.53,4.56-3.31,8.85-7.36,12.86-12.17,4.11-4.92,7.14-10.24,9.1-15.96,1.47-4.31,2.5-9.02,3.06-14.15.58-5.17.45-10.37-.39-15.6l1.67,10.12c.03.21-.04.44-.21.6-.35.34-.5.68-.45,1,.18,1.36.31,2.72.38,4.08.04.86-.12,2.09-.48,3.69-.32,1.41-.4,2.85-.26,4.32.12,1.25.14,2.51.06,3.76-.03.39,0,.71.11.94.24.57.6.69,1.08.33.26-.19.46-.49.59-.91.57-1.78.97-3.95,1.2-6.5.15-1.63.69-2,1.64-1.11.14.13.36.13.5,0,0,0,0,0,0,0,1.18-1.17,2.59-1.89,4.24-2.17-1.37,11.59-5.55,21.85-12.54,30.76-4.21,5.37-9.45,10.32-15.73,14.87Z"/>
  </g>
  <g>
    <path d="m202.15,182.69v-109.6h18.47v109.6h-18.47Z"/>
    <path d="m315.31,182.69V33.62h62.15c6.58,0,12.6,1.36,18.06,4.09,5.46,2.73,10.22,6.37,14.28,10.91,4.06,4.55,7.21,9.66,9.45,15.33,2.23,5.67,3.36,11.44,3.36,17.32,0,8.12-1.82,15.86-5.46,23.2-3.64,7.35-8.75,13.3-15.32,17.84-6.58,4.55-14.28,6.82-23.09,6.82h-44.51v53.54h-18.9Zm18.9-70.33h43.46c5.17,0,9.69-1.4,13.54-4.2,3.85-2.8,6.86-6.57,9.03-11.33,2.17-4.76,3.26-9.94,3.26-15.54s-1.26-11.16-3.78-15.85c-2.52-4.69-5.81-8.37-9.87-11.02-4.06-2.66-8.54-3.99-13.44-3.99h-42.2v61.94Z"/>
    <path d="m505.53,89.26c-9.24.14-17.39,2.48-24.46,7.03-7.07,4.54-12.07,10.81-15.02,18.79v67.61h-18.47v-108.97h17.22v24.78c3.78-7.56,8.78-13.68,15.02-18.37,6.23-4.69,12.77-7.31,19.63-7.87h3.57c.98,0,1.82.08,2.52.21v16.8Z"/>
    <path d="m573.55,184.78c-8.26,0-15.75-1.5-22.47-4.48-6.72-2.99-12.53-7.09-17.43-12.3-4.9-5.21-8.68-11.22-11.33-18.02-2.67-6.81-3.99-13.96-3.99-21.47s1.33-14.87,3.99-21.67c2.65-6.81,6.43-12.81,11.33-18.03,4.9-5.21,10.74-9.3,17.54-12.3,6.79-2.99,14.24-4.48,22.36-4.48s15.75,1.49,22.47,4.48c6.72,2.99,12.56,7.09,17.53,12.3,4.97,5.21,8.78,11.22,11.45,18.03,2.65,6.81,3.98,14.03,3.98,21.67s-1.33,14.66-3.98,21.47c-2.67,6.81-6.44,12.81-11.34,18.02-4.9,5.21-10.74,9.32-17.53,12.3-6.79,2.98-14.32,4.48-22.57,4.48Zm-36.32-56.06c0,7.48,1.64,14.27,4.93,20.37,3.29,6.1,7.66,10.91,13.12,14.44,5.45,3.53,11.54,5.3,18.26,5.3s12.84-1.8,18.37-5.4,9.94-8.48,13.23-14.65c3.29-6.16,4.93-12.99,4.93-20.47s-1.65-14.27-4.93-20.37c-3.29-6.1-7.7-10.94-13.23-14.54s-11.65-5.41-18.37-5.41-12.81,1.84-18.26,5.51c-5.46,3.67-9.83,8.56-13.12,14.65-3.29,6.1-4.93,12.96-4.93,20.57Z"/>
    <path d="m710.87,177.85c-1.54.7-3.64,1.61-6.3,2.73-2.66,1.12-5.74,2.1-9.24,2.94-3.5.84-7.21,1.26-11.13,1.26-4.48,0-8.6-.81-12.38-2.41-3.78-1.61-6.79-4.13-9.03-7.56-2.24-3.43-3.36-7.73-3.36-12.91v-73.7h-14.91v-14.49h14.91v-36.53h18.47v36.53h24.57v14.49h-24.57v68.02c.28,3.92,1.61,6.83,3.99,8.71,2.38,1.89,5.18,2.84,8.4,2.84,3.64,0,7-.63,10.08-1.89,3.08-1.26,5.11-2.17,6.08-2.73l4.42,14.69Z"/>
    <path d="m778.89,184.78c-8.26,0-15.75-1.5-22.47-4.48-6.72-2.99-12.53-7.09-17.43-12.3-4.9-5.21-8.68-11.22-11.33-18.02-2.67-6.81-3.99-13.96-3.99-21.47s1.33-14.87,3.99-21.67c2.65-6.81,6.43-12.81,11.33-18.03,4.9-5.21,10.74-9.3,17.54-12.3,6.79-2.99,14.24-4.48,22.36-4.48s15.75,1.49,22.47,4.48c6.72,2.99,12.56,7.09,17.53,12.3,4.97,5.21,8.78,11.22,11.45,18.03,2.65,6.81,3.98,14.03,3.98,21.67s-1.33,14.66-3.98,21.47c-2.67,6.81-6.44,12.81-11.34,18.02-4.9,5.21-10.74,9.32-17.53,12.3-6.79,2.98-14.32,4.48-22.57,4.48Zm-36.32-56.06c0,7.48,1.64,14.27,4.93,20.37,3.29,6.1,7.66,10.91,13.12,14.44,5.45,3.53,11.54,5.3,18.26,5.3s12.84-1.8,18.37-5.4c5.53-3.6,9.94-8.48,13.23-14.65,3.29-6.16,4.93-12.99,4.93-20.47s-1.65-14.27-4.93-20.37c-3.29-6.1-7.7-10.94-13.23-14.54-5.53-3.6-11.65-5.41-18.37-5.41s-12.81,1.84-18.26,5.51c-5.46,3.67-9.83,8.56-13.12,14.65-3.29,6.1-4.93,12.96-4.93,20.57Z"/>
    <path d="m909.69,184.78c-8.26,0-15.78-1.5-22.57-4.48-6.79-2.99-12.67-7.12-17.63-12.4-4.98-5.28-8.82-11.32-11.55-18.13-2.73-6.81-4.09-14.03-4.09-21.68,0-10.28,2.31-19.66,6.93-28.13,4.62-8.48,11.13-15.25,19.53-20.32,8.39-5.07,18.13-7.61,29.18-7.61s20.19,2.41,28.24,7.24c8.04,4.83,14.03,11.3,17.95,19.42l-18.06,5.67c-2.8-5.17-6.72-9.2-11.76-12.07-5.04-2.86-10.64-4.31-16.8-4.31-6.72,0-12.84,1.74-18.37,5.2-5.53,3.46-9.9,8.21-13.12,14.23-3.22,6.03-4.83,12.92-4.83,20.67s1.64,14.52,4.93,20.68c3.29,6.16,7.7,11.04,13.22,14.65,5.53,3.6,11.65,5.4,18.37,5.4,4.34,0,8.5-.77,12.49-2.3,3.99-1.54,7.48-3.6,10.5-6.2,3.01-2.58,5.07-5.42,6.19-8.5l18.06,5.46c-2.24,5.32-5.64,10.05-10.18,14.17-4.55,4.13-9.94,7.39-16.16,9.77-6.23,2.38-13.05,3.57-20.48,3.57Z"/>
    <path d="m1028.73,184.78c-8.26,0-15.75-1.5-22.47-4.48-6.72-2.99-12.53-7.09-17.43-12.3-4.9-5.21-8.68-11.22-11.33-18.02-2.67-6.81-3.99-13.96-3.99-21.47s1.33-14.87,3.99-21.67c2.65-6.81,6.43-12.81,11.33-18.03,4.9-5.21,10.74-9.3,17.54-12.3,6.79-2.99,14.24-4.48,22.36-4.48s15.75,1.49,22.47,4.48c6.72,2.99,12.56,7.09,17.53,12.3,4.97,5.21,8.78,11.22,11.45,18.03,2.65,6.81,3.98,14.03,3.98,21.67s-1.33,14.66-3.98,21.47c-2.67,6.81-6.44,12.81-11.34,18.02-4.9,5.21-10.74,9.32-17.53,12.3-6.79,2.98-14.32,4.48-22.57,4.48Zm-36.32-56.06c0,7.48,1.64,14.27,4.93,20.37,3.29,6.1,7.66,10.91,13.12,14.44,5.45,3.53,11.54,5.3,18.26,5.3s12.84-1.8,18.37-5.4c5.53-3.6,9.94-8.48,13.23-14.65,3.29-6.16,4.93-12.99,4.93-20.47s-1.65-14.27-4.93-20.37c-3.29-6.1-7.7-10.94-13.23-14.54-5.53-3.6-11.65-5.41-18.37-5.41s-12.81,1.84-18.26,5.51c-5.46,3.67-9.83,8.56-13.12,14.65-3.29,6.1-4.93,12.96-4.93,20.57Z"/>
    <path d="m1111.46,29.42h18.47v125.5c0,6.05.84,9.77,2.52,11.18,1.67,1.41,3.7,2.11,6.08,2.11,2.95,0,5.74-.31,8.4-.94,2.66-.63,4.9-1.29,6.72-2l2.94,15.12c-3.08,1.26-6.72,2.31-10.91,3.15-4.2.84-7.91,1.26-11.13,1.26-7.14,0-12.77-2.04-16.9-6.11-4.13-4.07-6.19-9.77-6.19-17.08V29.42Z"/>
  </g>
</svg>